<?xml version="1.0" encoding="UTF-8"?>
<svg xmlns="http://www.w3.org/2000/svg" xmlns:xlink="http://www.w3.org/1999/xlink" width="24px" height="24px" viewBox="0 0 24 24" version="1.1">
<g id="surface1">
<path style=" stroke:none;fill-rule:nonzero;fill:rgb(0%,0%,0%);fill-opacity:1;" d="M 23.597656 10.925781 L 19.960938 7.289062 L 19.960938 3.085938 C 19.960938 2.328125 19.34375 1.710938 18.582031 1.710938 C 17.824219 1.710938 17.207031 2.328125 17.207031 3.085938 L 17.207031 4.535156 L 14.5 1.828125 C 13.160156 0.488281 10.832031 0.492188 9.496094 1.832031 L 0.402344 10.925781 C -0.132812 11.464844 -0.132812 12.332031 0.402344 12.871094 C 0.941406 13.410156 1.8125 13.410156 2.347656 12.871094 L 11.441406 3.777344 C 11.738281 3.480469 12.261719 3.480469 12.554688 3.773438 L 21.652344 12.871094 C 21.921875 13.140625 22.273438 13.273438 22.625 13.273438 C 22.976562 13.273438 23.328125 13.140625 23.597656 12.871094 C 24.132812 12.332031 24.132812 11.464844 23.597656 10.925781 Z M 23.597656 10.925781 "/>
<path style=" stroke:none;fill-rule:nonzero;fill:rgb(0%,0%,0%);fill-opacity:1;" d="M 12.476562 6.386719 C 12.214844 6.121094 11.785156 6.121094 11.523438 6.386719 L 3.523438 14.382812 C 3.394531 14.511719 3.324219 14.683594 3.324219 14.863281 L 3.324219 20.695312 C 3.324219 22.0625 4.433594 23.175781 5.804688 23.175781 L 9.765625 23.175781 L 9.765625 17.039062 L 14.234375 17.039062 L 14.234375 23.175781 L 18.195312 23.175781 C 19.566406 23.175781 20.675781 22.0625 20.675781 20.695312 L 20.675781 14.863281 C 20.675781 14.683594 20.601562 14.511719 20.476562 14.382812 Z M 12.476562 6.386719 "/>
</g>
</svg>
